<?xml version="1.0" encoding="UTF-8" standalone="no"?><!-- Generator: Gravit.io --><svg xmlns="http://www.w3.org/2000/svg" xmlns:xlink="http://www.w3.org/1999/xlink" style="isolation:isolate" viewBox="545.743 -365.741 967.525 1142.292" width="967.525pt" height="1142.292pt"><defs><clipPath id="_clipPath_eULRFniOI1b0FZc7H7KqhPlLD7bb4BFf"><rect x="545.743" y="-365.741" width="967.525" height="1142.292"/></clipPath></defs><g clip-path="url(#_clipPath_eULRFniOI1b0FZc7H7KqhPlLD7bb4BFf)"><g><path d=" M 1272.096 734.188 C 1192.563 779.469 1074.787 783.741 980.136 768.862 L 979.292 768.71 C 885.237 749.831 775.825 704.764 716.791 634.474 C 655.2 561.11 653.966 498.58 684.614 466.703 C 715.262 434.821 781.189 484.045 781.189 484.045 C 781.189 484.045 781.583 484.612 782.259 485.732 L 782.128 486.458 C 782.465 486.64 782.711 486.684 783.047 486.871 L 782.259 485.732 C 838.744 198.925 830.445 106.348 823.134 78.369 C 819.993 75.5 818.347 71.339 818.673 67.097 C 823.464 40.42 951.685 41.14 1104.996 68.669 C 1258.312 96.2 1378.768 140.134 1373.978 166.811 C 1372.807 170.902 1369.822 174.231 1365.879 175.828 C 1349.291 199.516 1309.301 283.422 1262.473 571.962 C 1263.491 571.147 1264.058 570.752 1264.058 570.752 C 1264.058 570.752 1342.996 547.542 1360.633 588.094 C 1378.275 628.642 1355.364 686.837 1272.096 734.188 L 1272.096 734.188 Z " fill="rgb(25,40,47)"/><path d=" M 1232.51 586.146 C 1197.38 597.907 1129.487 608.891 1011.785 587.756 C 894.089 566.622 834.259 532.702 805.41 509.453 C 848.644 283.943 860.302 164.915 861.621 102.727 C 909.302 124.495 992.046 148.076 1087.654 165.244 C 1183.262 182.412 1269.042 189.092 1321.317 185.273 C 1300.923 244.035 1270.435 359.683 1232.51 586.146 L 1232.51 586.146 Z " fill="rgb(40,58,68)"/><path d=" M 1272.096 734.188 C 1192.563 779.469 1074.787 783.741 980.136 768.862 L 979.292 768.71 C 885.237 749.831 775.825 704.764 716.791 634.474 C 655.2 561.11 653.966 498.58 684.614 466.703 C 715.262 434.821 781.189 484.045 781.189 484.045 C 781.189 484.045 781.583 484.612 782.259 485.732 C 778.535 504.379 774.639 523.987 770.35 544.402 C 770.35 544.402 753.009 640.977 994.443 684.331 C 1235.878 727.684 1253.22 631.11 1253.22 631.11 C 1256.307 610.479 1259.476 590.74 1262.473 571.962 C 1263.491 571.147 1264.058 570.752 1264.058 570.752 C 1264.058 570.752 1342.996 547.542 1360.633 588.094 C 1378.275 628.642 1355.364 686.837 1272.096 734.188 L 1272.096 734.188 Z " fill="rgb(40,58,68)"/><path d=" M 1246.053 717.265 C 1175.038 755.491 1069.388 758.289 984.369 744.825 L 983.605 744.688 C 899.073 727.805 800.573 688.359 747.1 627.669 C 691.299 564.312 689.72 510.707 716.979 483.604 C 744.239 456.501 803.752 499.185 803.752 499.185 C 803.752 499.185 804.116 499.675 804.742 500.609 C 801.54 516.571 798.191 533.35 794.481 550.814 C 794.481 550.814 779.636 633.484 996.579 672.44 C 1213.521 711.396 1228.366 628.725 1228.366 628.725 C 1230.98 611.065 1233.678 594.169 1236.212 578.087 C 1237.124 577.402 1237.636 577.097 1237.636 577.097 C 1237.636 577.097 1308.282 557.784 1324.409 592.678 C 1340.536 627.572 1320.406 677.279 1246.053 717.265 L 1246.053 717.265 Z " fill="rgb(25,40,47)"/><path d=" M 1253.22 631.11 C 1248.092 647.751 1236.636 661.712 1221.32 669.99 C 1188.957 690.597 1123.854 707.569 994.443 684.331 C 865.038 661.094 809.901 622.531 786.736 591.953 C 775.251 578.863 769.368 561.788 770.35 544.402 C 774.639 523.987 778.535 504.379 782.259 485.732 C 788.171 493.862 795.16 501.155 803.037 507.405 C 830.854 530.845 890.825 566.035 1011.785 587.756 C 1132.745 609.476 1201.218 597.35 1235.447 585.052 C 1245.006 581.933 1254.101 577.528 1262.473 571.962 C 1259.476 590.74 1256.307 610.479 1253.22 631.11 L 1253.22 631.11 Z " fill="rgb(223,77,96)"/><path d=" M 1221.688 667.939 L 1221.32 669.99 C 1188.957 690.597 1123.854 707.569 994.443 684.331 C 865.038 661.094 809.901 622.531 786.736 591.953 L 787.104 589.902 C 792.605 561.357 797.912 533.857 803.037 507.405 C 830.854 530.845 890.825 566.035 1011.785 587.756 C 1132.745 609.476 1201.218 597.35 1235.447 585.052 C 1231.041 611.677 1226.455 639.306 1221.688 667.939 Z " fill="rgb(255,83,100)"/><g><path d=" M 888.002 166.773 C 886.804 173.445 880.433 177.876 873.767 176.679 C 867.1 175.482 862.664 169.11 863.862 162.438 C 865.059 155.772 871.435 151.342 878.102 152.539 C 884.768 153.736 889.199 160.107 888.002 166.773 Z " fill="rgb(127,140,141)"/><path d=" M 855.486 347.85 C 865.977 289.427 871.139 244.747 873.658 214.045" fill="rgb(127,140,141)"/><path d=" M 853.319 359.923 C 846.652 358.726 842.221 352.355 843.419 345.684 C 852.114 297.265 858.181 252.638 861.432 213.096 C 861.695 209.851 863.243 206.848 865.722 204.745 C 868.2 202.643 871.418 201.611 874.663 201.874 C 877.913 202.104 880.941 203.64 883.052 206.131 C 885.158 208.622 886.176 211.854 885.869 215.101 C 882.564 255.433 876.389 300.841 867.559 350.018 C 866.361 356.69 859.99 361.121 853.319 359.923 Z " fill="rgb(127,140,141)"/></g></g><g><g><path d=" M 1274.938 -157.134 C 1274.606 -154.179 1272.956 -151.239 1270.122 -149.107 C 1264.807 -145.112 1257.344 -145.472 1253.451 -149.912 C 1226.444 -180.718 1184.899 -198.422 1139.467 -198.484 C 1116.421 -198.516 1093.691 -194.201 1071.909 -185.659 C 1065.66 -183.21 1058.904 -185.638 1056.819 -191.085 C 1054.731 -196.534 1058.106 -202.934 1064.354 -205.385 C 1089.37 -215.195 1115.459 -220.151 1141.895 -220.114 C 1194.031 -220.043 1241.706 -199.728 1272.696 -164.38 C 1274.509 -162.31 1275.228 -159.717 1274.938 -157.134 L 1274.938 -157.134 Z " fill="rgb(252,112,155)"/></g><g><path d=" M 1193.834 -199.399 L 1193.958 -199.595 C 1197.775 -205.625 1194.958 -212.813 1188.062 -214.522 C 1173.32 -218.175 1157.816 -220.092 1141.893 -220.114 C 1122.124 -220.141 1102.553 -217.368 1083.477 -211.867 C 1076.868 -209.961 1072.753 -203.613 1074.508 -197.877 C 1074.529 -197.809 1074.55 -197.741 1074.57 -197.674 C 1076.22 -192.285 1082.403 -189.529 1088.614 -191.318 C 1105.212 -196.099 1122.25 -198.508 1139.465 -198.484 C 1153.281 -198.465 1166.737 -196.814 1179.534 -193.659 C 1184.877 -192.343 1190.879 -194.729 1193.834 -199.399 Z " fill="rgb(247,166,193)"/></g><g><path d=" M 1153.082 -254.168 C 1152.412 -248.195 1146.555 -243.361 1140.004 -243.37 C 1114.453 -243.405 1089.053 -239.222 1064.51 -230.939 C 1058.157 -228.795 1051.597 -231.574 1049.861 -237.15 C 1048.13 -242.724 1051.868 -248.982 1058.221 -251.126 C 1085.612 -260.372 1113.944 -265.039 1142.432 -265 C 1148.984 -264.99 1153.752 -260.141 1153.082 -254.168 L 1153.082 -254.168 Z " fill="rgb(254,37,95)"/></g></g><g><g><path d=" M 1072.533 409.707 C 1070.941 406.945 1070.481 403.545 1071.542 400.274 C 1073.534 394.142 1080.116 390.786 1086.248 392.776 C 1128.784 406.584 1175.389 401.709 1214.112 379.398 C 1233.755 368.08 1250.371 353.093 1263.499 334.854 C 1267.266 329.623 1274.56 328.434 1279.791 332.2 C 1285.024 335.965 1286.211 343.259 1282.445 348.491 C 1267.367 369.438 1248.298 386.642 1225.765 399.625 C 1181.328 425.228 1127.848 430.825 1079.039 414.98 C 1076.181 414.05 1073.925 412.123 1072.533 409.707 L 1072.533 409.707 Z " fill="rgb(252,112,155)"/></g><g><path d=" M 1168.4 406.967 L 1168.42 407.201 C 1168.995 414.386 1175.953 419.324 1182.909 417.432 C 1197.778 413.389 1212.195 407.443 1225.767 399.623 C 1242.617 389.915 1257.522 377.84 1270.275 363.608 C 1274.693 358.677 1274.169 351.067 1269.036 346.884 C 1268.976 346.834 1268.915 346.785 1268.855 346.736 C 1264.032 342.807 1257.02 343.426 1252.866 348.057 C 1241.765 360.435 1228.786 370.943 1214.113 379.397 C 1202.337 386.182 1189.833 391.353 1176.935 394.878 C 1171.552 396.35 1167.954 401.404 1168.4 406.967 Z " fill="rgb(247,166,193)"/></g><g><path d=" M 1237.842 435.095 C 1234.624 429.51 1236.544 422.373 1242.128 419.155 C 1263.906 406.607 1282.88 390.423 1298.522 371.052 C 1302.572 366.038 1309.92 365.254 1314.936 369.305 C 1319.946 373.358 1320.733 380.704 1316.683 385.718 C 1299.226 407.338 1278.062 425.392 1253.781 439.383 C 1248.196 442.599 1241.06 440.68 1237.842 435.095 L 1237.842 435.095 Z " fill="rgb(254,37,95)"/></g></g><g><g><path d=" M 1398.583 172.68 C 1394.19 168.832 1393.181 161.984 1396.164 156.971 C 1403.868 144.027 1409.702 129.787 1413.551 114.512 C 1420.659 86.3 1420.404 56.327 1412.812 27.836 C 1405.421 0.095 1391.45 -25.125 1372.409 -45.098 C 1369.401 -48.252 1368.362 -52.843 1369.378 -56.875 C 1369.797 -58.538 1370.564 -60.105 1371.688 -61.439 C 1375.537 -66.009 1382.099 -66.103 1386.345 -61.647 C 1408.189 -38.736 1424.215 -9.808 1432.692 22.01 C 1441.408 54.725 1441.704 89.128 1433.548 121.499 C 1429.126 139.05 1422.414 155.417 1413.544 170.299 C 1410.269 175.794 1403.403 176.9 1398.583 172.68 Z " fill="rgb(255,224,89)"/></g><g><path d=" M 1423.538 30.145 C 1423.471 30.163 1423.405 30.183 1423.338 30.201 C 1418.277 31.628 1415.118 37.155 1416.123 42.953 C 1419.548 62.711 1419.54 82.892 1416.1 102.467 C 1415.086 108.239 1418.321 114.06 1423.449 115.852 L 1423.656 115.924 C 1429.46 117.952 1435.361 114.056 1436.502 107.521 C 1440.411 85.156 1440.412 62.1 1436.513 39.518 C 1435.36 32.84 1429.366 28.497 1423.538 30.145 L 1423.538 30.145 Z " fill="rgb(255,243,112)"/></g><g><path d=" M 1430.151 -39.935 C 1430.804 -42.525 1432.283 -44.837 1434.49 -46.345 C 1439.292 -49.629 1445.721 -47.856 1448.846 -42.385 C 1473.112 0.09 1484.418 50.415 1480.683 99.321 C 1480.203 105.661 1475.177 110.169 1469.467 109.399 C 1463.756 108.63 1459.519 102.871 1460.004 96.535 C 1463.35 52.708 1453.211 7.595 1431.452 -30.491 C 1429.762 -33.45 1429.383 -36.885 1430.151 -39.935 Z " fill="rgb(255,199,81)"/></g><g><path d=" M 1453.898 25.71 C 1457.546 40.325 1459.742 55.31 1460.406 70.34 C 1460.687 76.721 1465.528 81.822 1471.248 81.693 C 1471.317 81.692 1471.387 81.689 1471.456 81.688 C 1477.088 81.564 1481.415 76.39 1481.139 70.11 C 1480.399 53.306 1477.942 36.555 1473.86 20.221 C 1472.239 13.735 1466.002 9.985 1460.385 12.084 C 1460.321 12.108 1460.256 12.132 1460.191 12.156 C 1455.184 14.028 1452.454 19.926 1453.898 25.71 Z " fill="rgb(255,224,89)"/></g></g><g><g><path d=" M 784.784 -93.165 C 785.91 -87.434 782.524 -81.397 777.099 -79.252 C 763.091 -73.713 749.771 -66.007 737.39 -56.268 C 714.523 -38.281 696.408 -14.4 685.007 12.792 C 673.905 39.267 669.551 67.768 672.418 95.213 C 672.871 99.548 670.888 103.817 667.62 106.387 C 666.272 107.448 664.707 108.219 663.003 108.589 C 657.163 109.854 651.912 105.918 651.273 99.797 C 647.984 68.311 652.976 35.62 665.71 5.254 C 678.803 -25.967 699.592 -53.38 725.831 -74.02 C 740.057 -85.21 755.371 -94.063 771.487 -100.423 C 777.437 -102.77 783.548 -99.451 784.784 -93.165 Z " fill="rgb(255,224,89)"/></g><g><path d=" M 677.928 4.409 C 677.991 4.435 678.056 4.461 678.12 4.487 C 682.998 6.45 688.876 4.006 691.624 -1.198 C 700.987 -18.93 713.326 -34.899 728.011 -48.292 C 732.341 -52.241 733.338 -58.826 730.374 -63.377 L 730.254 -63.561 C 726.899 -68.713 719.847 -69.235 714.95 -64.76 C 698.189 -49.446 684.098 -31.196 673.385 -10.939 C 670.217 -4.949 672.307 2.152 677.928 4.409 L 677.928 4.409 Z " fill="rgb(255,243,112)"/></g><g><path d=" M 629.867 55.84 C 627.767 57.491 625.183 58.418 622.516 58.263 C 616.707 57.927 612.702 52.595 613.571 46.355 C 620.321 -2.095 642.125 -48.84 674.968 -85.269 C 679.222 -89.994 685.955 -90.491 690.004 -86.392 C 694.055 -82.293 693.889 -75.145 689.634 -70.426 C 660.202 -37.78 640.66 4.125 634.608 47.569 C 634.138 50.944 632.339 53.895 629.867 55.84 Z " fill="rgb(255,199,81)"/></g><g><path d=" M 651.186 -10.633 C 657.229 -24.431 664.649 -37.635 673.308 -49.937 C 676.985 -55.16 676.271 -62.156 671.664 -65.549 C 671.608 -65.591 671.551 -65.631 671.496 -65.673 C 666.962 -69.017 660.376 -67.565 656.756 -62.425 C 647.073 -48.672 638.781 -33.911 632.031 -18.487 C 629.35 -12.363 631.995 -5.582 637.723 -3.812 C 637.789 -3.792 637.856 -3.771 637.921 -3.75 C 643.029 -2.172 648.794 -5.172 651.186 -10.633 Z " fill="rgb(255,224,89)"/></g></g><g><g><path d=" M 869.395 423.552 C 868.638 430.128 862.467 434.678 855.957 433.483 C 784.595 420.373 727.316 365.714 711.469 294.158 C 710.075 287.862 714.049 281.628 720.346 280.233 C 726.642 278.841 732.877 282.812 734.271 289.109 C 748.069 351.419 797.924 399.025 860.053 410.491 C 866.01 411.59 870.147 417.035 869.454 423.053 L 869.397 423.552 L 869.395 423.552 Z " fill="rgb(165,249,243)"/></g><g><path d=" M 825.009 399.649 C 803.092 389.987 783.733 375.516 768.338 357.462 C 764.781 353.291 758.788 352.191 753.985 354.834 C 753.917 354.872 753.848 354.91 753.778 354.948 C 747.376 358.473 745.792 366.995 750.531 372.558 C 768.211 393.311 790.446 409.958 815.63 421.057 C 821.927 423.832 829.276 420.575 831.339 414.008 C 831.366 413.926 831.391 413.844 831.417 413.762 C 833.198 408.098 830.441 402.044 825.009 399.649 Z " fill="rgb(222,255,252)"/></g><g><path d=" M 802.239 457.442 C 800.575 457.46 798.881 457.122 797.269 456.384 C 770.645 444.223 746.921 427.222 726.758 405.856 C 722.332 401.166 722.546 393.776 727.236 389.35 C 731.926 384.924 739.317 385.136 743.743 389.826 C 761.828 408.992 783.1 424.238 806.971 435.142 C 812.838 437.821 815.421 444.748 812.741 450.614 C 810.798 454.867 806.623 457.394 802.239 457.442 L 802.239 457.442 Z " fill="rgb(87,234,230)"/></g></g><g><g><g><path d=" M 1066.435 -151.734 L 1026.82 -187.009 L 1049.384 -212.349 L 1088.999 -177.074 C 1090.848 -175.428 1091.012 -172.595 1089.366 -170.747 L 1072.762 -152.1 C 1071.117 -150.252 1068.284 -150.088 1066.435 -151.734 Z " fill="rgb(234,177,183)"/></g></g><g><path d=" M 1088.999 -177.074 L 1080.614 -184.541 L 1071.477 -174.279 C 1069.831 -172.43 1066.998 -172.266 1065.149 -173.912 L 1037.266 -198.741 L 1026.819 -187.009 L 1066.435 -151.733 C 1068.283 -150.088 1071.116 -150.252 1072.762 -152.1 L 1089.366 -170.747 C 1091.012 -172.596 1090.848 -175.428 1088.999 -177.074 L 1088.999 -177.074 Z " fill="rgb(228,152,157)"/></g><g><g><path d=" M 989.719 -271.352 L 964.379 -293.917 L 1026.998 -364.24 C 1028.644 -366.088 1031.477 -366.252 1033.325 -364.606 L 1051.972 -348.003 C 1053.82 -346.357 1053.984 -343.524 1052.339 -341.675 L 989.72 -271.352 L 989.719 -271.352 Z " fill="rgb(234,177,183)"/></g></g><g><path d=" M 1051.972 -348.003 L 1043.158 -355.851 L 977.559 -282.18 L 989.72 -271.352 L 1052.339 -341.675 C 1053.984 -343.524 1053.82 -346.357 1051.972 -348.003 L 1051.972 -348.003 Z " fill="rgb(228,152,157)"/></g><g><g><path d=" M 1001.621 -233.695 L 976.281 -256.259 L 1025.662 -311.717 C 1042.355 -330.463 1071.083 -332.127 1089.828 -315.435 L 1097.215 -308.858 C 1099.063 -307.213 1099.227 -304.379 1097.581 -302.531 L 1080.977 -283.884 C 1079.332 -282.036 1076.499 -281.872 1074.65 -283.518 L 1067.264 -290.095 C 1062.513 -294.325 1055.232 -293.903 1051.002 -289.152 L 1001.621 -233.695 Z " fill="rgb(226,128,134)"/></g></g><g><path d=" M 1097.214 -308.859 L 1089.828 -315.436 C 1089.205 -315.991 1088.57 -316.522 1087.926 -317.036 L 1075.234 -302.783 C 1073.588 -300.934 1070.755 -300.77 1068.907 -302.416 L 1066.877 -304.224 C 1059.168 -311.088 1047.354 -310.403 1040.49 -302.694 L 989.031 -244.905 L 1001.62 -233.695 L 1051.002 -289.153 C 1055.232 -293.904 1062.513 -294.326 1067.264 -290.096 L 1074.65 -283.518 C 1076.498 -281.873 1079.332 -282.037 1080.977 -283.885 L 1097.581 -302.531 C 1099.227 -304.38 1099.063 -307.213 1097.214 -308.859 Z " fill="rgb(221,99,110)"/></g><g><path d=" M 1057.798 -183.774 L 1031.094 -164.487 L 1009.305 -228.063 L 1064.055 -255.687 L 1070.304 -213.415 C 1071.995 -201.974 1067.173 -190.545 1057.798 -183.774 Z " fill="rgb(221,99,110)"/></g><g><path d=" M 1070.304 -213.414 L 1064.055 -255.686 L 1050.167 -248.678 L 1054.059 -222.35 C 1055.75 -210.91 1050.928 -199.48 1041.554 -192.71 L 1025.416 -181.054 L 1031.094 -164.486 L 1057.798 -183.773 C 1067.173 -190.545 1071.995 -201.974 1070.304 -213.414 Z " fill="rgb(218,74,84)"/></g><g><path d=" M 995.299 -289.817 L 993.605 -318.641 C 992.921 -330.285 981.758 -338.394 970.473 -335.445 L 950.884 -330.326 C 931.909 -325.367 916.821 -310.993 910.949 -292.281 L 892.487 -233.447 L 966.07 -250.657 C 984.043 -254.86 996.381 -271.39 995.299 -289.817 L 995.299 -289.817 Z " fill="rgb(221,99,110)"/></g><path d=" M 995.299 -289.817 L 993.605 -318.641 C 993.028 -328.459 985 -335.764 975.731 -336.045 C 976.259 -334.5 976.595 -332.856 976.696 -331.131 L 978.39 -302.307 C 979.472 -283.881 967.134 -267.35 949.161 -263.147 L 898.056 -251.194 L 892.487 -233.447 L 966.069 -250.656 C 984.043 -254.86 996.381 -271.39 995.299 -289.817 L 995.299 -289.817 Z " fill="rgb(218,74,84)"/><g><path d=" M 981.383 -269.267 L 1021.695 -275.563 C 1043.411 -278.955 1065.505 -272.451 1081.919 -257.835 L 1108.898 -233.812 C 1110.746 -232.166 1110.911 -229.333 1109.265 -227.484 L 1092.692 -208.872 C 1091.046 -207.024 1088.213 -206.86 1086.365 -208.506 L 1063.14 -229.186 C 1055.622 -235.88 1044.056 -235.018 1037.613 -227.285 L 1022.528 -209.18 L 981.383 -269.267 Z " fill="rgb(234,177,183)"/></g><g><path d=" M 1108.899 -233.811 L 1099.482 -242.196 L 1091.294 -233 C 1089.648 -231.152 1086.815 -230.988 1084.967 -232.634 L 1071.956 -244.219 C 1058.903 -255.841 1038.878 -254.585 1027.38 -241.424 L 1012.282 -224.143 L 1022.528 -209.18 L 1037.614 -227.285 C 1044.056 -235.019 1055.623 -235.88 1063.141 -229.186 L 1086.365 -208.506 C 1088.214 -206.86 1091.047 -207.024 1092.693 -208.872 L 1109.265 -227.484 C 1110.911 -229.333 1110.747 -232.165 1108.899 -233.811 L 1108.899 -233.811 Z " fill="rgb(228,152,157)"/></g><g><path d=" M 882.356 -66.638 L 860.935 -116.901 C 850.212 -142.061 849.124 -170.288 857.877 -196.199 C 869.203 -229.729 895.794 -255.879 929.508 -266.643 L 960.648 -276.586 C 980.03 -282.774 1000.989 -273.577 1009.558 -255.124 L 1027.899 -215.626 C 1027.899 -215.626 1030.534 -198.236 1031.972 -192.579 C 1033.413 -186.912 1040.809 -177.574 1041.185 -171.775 C 1042.149 -156.936 1039.625 -141.911 1033.597 -127.96 C 1025.041 -108.161 1009.998 -91.865 990.945 -81.756 L 930.408 -49.637 C 912.502 -40.137 890.303 -47.991 882.356 -66.638 Z " fill="rgb(226,128,134)"/></g><g><path d=" M 1033.598 -127.96 C 1044.334 -152.805 1043.955 -181.052 1032.556 -205.6 L 1024.837 -222.221 C 1028.66 -203.029 1026.637 -182.936 1018.732 -164.644 C 1009.968 -144.361 994.558 -127.667 975.039 -117.311 L 913.022 -84.408 C 899.396 -77.178 883.347 -79.767 872.655 -89.404 L 882.356 -66.638 C 890.303 -47.992 912.503 -40.138 930.408 -49.637 L 990.946 -81.756 C 1009.999 -91.865 1025.042 -108.16 1033.598 -127.96 L 1033.598 -127.96 Z " fill="rgb(221,99,110)"/></g><g><path d=" M 921.982 -200.019 L 915.811 -205.514 C 908.555 -211.976 907.908 -223.136 914.37 -230.392 L 917.054 -233.406 C 918.818 -235.387 921.852 -235.563 923.833 -233.799 C 925.814 -232.036 925.99 -229.001 924.226 -227.02 L 921.542 -224.005 C 918.602 -220.704 918.896 -215.625 922.198 -212.686 L 928.369 -207.191 C 930.349 -205.427 930.525 -202.392 928.762 -200.411 C 926.998 -198.431 923.963 -198.255 921.982 -200.019 Z " fill="rgb(221,99,110)"/></g><path d=" M 914.364 -74.188 L 921.324 -82.004 C 926.439 -87.748 929.012 -95.141 928.567 -102.822 C 928.27 -107.94 929.984 -112.868 933.394 -116.698 L 943.016 -127.504 C 943.019 -127.506 943.021 -127.509 943.023 -127.512 C 948.135 -133.256 950.707 -140.647 950.262 -148.325 L 949.575 -160.178 L 950.482 -160.23 C 957.708 -160.649 964.338 -163.857 969.151 -169.263 L 1021.914 -228.517 L 1017.507 -238.009 L 961.979 -175.649 C 958.872 -172.159 954.591 -170.089 949.926 -169.818 L 930.693 -168.704 C 928.046 -168.55 926.024 -166.28 926.177 -163.632 C 926.332 -160.984 928.601 -158.963 931.249 -159.116 L 939.988 -159.622 L 940.675 -147.769 C 940.934 -143.287 939.652 -138.951 937.04 -135.371 L 919.307 -134.343 C 913.496 -134.007 908.165 -131.427 904.294 -127.081 L 901.04 -123.426 C 898.366 -120.423 893.748 -120.155 890.744 -122.829 C 888.764 -124.593 885.728 -124.417 883.965 -122.437 C 882.201 -120.456 882.377 -117.421 884.358 -115.657 C 891.315 -109.462 902.016 -110.082 908.211 -117.04 L 911.466 -120.695 C 913.63 -123.125 916.612 -124.568 919.862 -124.755 L 928.137 -125.235 L 926.221 -123.084 C 921.105 -117.339 918.534 -109.946 918.979 -102.267 C 919.276 -97.147 917.561 -92.219 914.151 -88.39 L 907.191 -80.574 C 905.428 -78.593 905.604 -75.558 907.584 -73.794 C 909.566 -72.031 912.6 -72.207 914.364 -74.188 L 914.364 -74.188 Z " fill="rgb(190,216,251)"/><path d=" M 914.364 -74.188 L 921.324 -82.004 C 923.926 -84.926 925.865 -88.275 927.09 -91.871 L 913.022 -84.408 C 911.693 -83.703 910.341 -83.094 908.973 -82.573 L 907.192 -80.574 C 905.429 -78.593 905.605 -75.558 907.585 -73.794 C 909.566 -72.031 912.6 -72.207 914.364 -74.188 Z " fill="rgb(157,198,251)"/><path d=" M 965.818 -240.931 L 952.921 -252.414 C 949.601 -255.371 947.632 -259.443 947.374 -263.881 L 946.892 -272.194 L 937.448 -269.178 L 937.788 -263.325 C 938.178 -256.586 941.079 -250.386 945.968 -245.773 L 935.753 -234.302 C 933.99 -232.322 934.166 -229.287 936.146 -227.523 C 938.127 -225.76 941.162 -225.936 942.925 -227.916 L 953.127 -239.373 L 959.433 -233.758 C 961.413 -231.994 964.448 -232.17 966.212 -234.151 C 967.975 -236.133 967.798 -239.167 965.818 -240.931 L 965.818 -240.931 Z " fill="rgb(190,216,251)"/><path d=" M 1009.601 -127.307 L 1004.256 -132.066 C 1001.847 -134.211 1000.418 -137.166 1000.231 -140.387 L 999.64 -150.59 L 1037.359 -192.95 C 1036.315 -196.418 1035.076 -199.842 1033.628 -203.2 L 1017.184 -184.733 L 997.937 -201.872 C 990.215 -208.748 978.339 -208.06 971.463 -200.338 C 968.108 -196.57 962.314 -196.235 958.548 -199.589 L 953.79 -203.825 C 950.05 -207.156 945.237 -208.831 940.236 -208.541 L 903.354 -206.404 C 900.706 -206.25 898.684 -203.98 898.837 -201.332 C 898.992 -198.685 901.261 -196.664 903.909 -196.816 L 940.791 -198.954 C 943.231 -199.095 945.579 -198.278 947.404 -196.653 L 952.162 -192.417 C 959.883 -185.541 971.759 -186.229 978.635 -193.951 C 981.99 -197.718 987.784 -198.053 991.551 -194.699 L 1010.798 -177.56 L 1005.906 -172.067 L 985.1 -170.861 C 982.452 -170.707 980.431 -168.437 980.584 -165.789 C 980.738 -163.142 983.008 -161.12 985.656 -161.273 L 996.874 -161.923 L 968.22 -129.743 C 960.429 -120.994 956.511 -109.733 957.188 -98.037 L 957.712 -89 C 957.867 -86.352 960.136 -84.331 962.784 -84.484 C 965.432 -84.637 967.453 -86.908 967.3 -89.555 L 966.776 -98.593 C 966.576 -102.048 966.891 -105.453 967.687 -108.723 L 978.22 -99.344 C 980.2 -97.58 983.235 -97.756 984.999 -99.737 C 986.763 -101.717 986.587 -104.753 984.606 -106.516 L 971.557 -118.136 C 972.659 -119.973 973.936 -121.723 975.392 -123.358 L 990.609 -140.448 L 990.645 -139.831 C 990.979 -134.05 993.545 -128.745 997.87 -124.894 L 1003.215 -120.135 C 1005.196 -118.371 1008.231 -118.547 1009.994 -120.528 C 1011.758 -122.508 1011.581 -125.544 1009.601 -127.307 L 1009.601 -127.307 Z " fill="rgb(221,99,110)"/><g><path d=" M 967.299 -89.556 L 966.776 -98.593 C 966.575 -102.048 966.89 -105.454 967.686 -108.723 L 978.219 -99.344 C 980.2 -97.581 983.235 -97.757 984.999 -99.737 C 986.762 -101.718 986.586 -104.753 984.606 -106.517 L 973.437 -116.461 L 957.769 -108.148 C 957.197 -104.85 956.99 -101.464 957.189 -98.039 L 957.712 -89.001 C 957.867 -86.353 960.136 -84.333 962.784 -84.485 C 965.431 -84.638 967.453 -86.908 967.299 -89.556 Z " fill="rgb(218,74,84)"/><path d=" M 1009.601 -127.307 L 1004.256 -132.066 C 1002.673 -133.476 1001.523 -135.239 1000.861 -137.194 C 998.563 -134.708 996.135 -132.343 993.587 -130.107 C 994.72 -128.182 996.154 -126.423 997.87 -124.895 L 1003.215 -120.136 C 1005.196 -118.372 1008.231 -118.548 1009.994 -120.528 C 1011.758 -122.509 1011.581 -125.544 1009.601 -127.307 Z " fill="rgb(218,74,84)"/><path d=" M 1023.063 -176.895 L 1037.359 -192.95 C 1037.099 -193.814 1036.827 -194.674 1036.543 -195.532 C 1036.541 -195.537 1036.54 -195.543 1036.538 -195.548 C 1036.266 -196.366 1035.982 -197.181 1035.688 -197.994 C 1035.668 -198.049 1035.65 -198.104 1035.629 -198.159 C 1035.352 -198.921 1035.062 -199.68 1034.764 -200.436 C 1034.727 -200.531 1034.693 -200.625 1034.655 -200.72 C 1034.326 -201.55 1033.984 -202.378 1033.629 -203.201 L 1026.348 -195.025 C 1025.832 -188.917 1024.737 -182.848 1023.063 -176.895 Z " fill="rgb(218,74,84)"/></g></g><g><g><g><path d=" M 857.936 406.354 L 1018.107 289.27 L 1024.363 289.579 C 1026.477 289.684 1028.272 290.756 1029.406 292.302 C 1030.534 293.853 1031.012 295.888 1030.47 297.934 L 1019.897 337.777 C 1019.472 339.381 1018.468 340.77 1017.069 341.664 L 876.738 432.067 L 857.936 406.354 Z " fill="rgb(225,221,225)"/><path d=" M 983.192 287.56 L 1024.363 289.58 C 1026.477 289.685 1028.273 290.754 1029.405 292.303 L 863.316 413.714 L 849.897 395.358 L 978.625 289.076 C 979.905 288.017 981.532 287.478 983.192 287.56 L 983.192 287.56 Z " fill="rgb(181,173,182)"/><path d=" M 983.192 287.56 L 1024.363 289.58 C 1026.477 289.685 1028.273 290.754 1029.405 292.303 L 1016.257 301.914 L 990.272 300.644 L 859.555 408.569 L 849.897 395.356 L 978.625 289.076 C 979.905 288.017 981.532 287.478 983.192 287.56 L 983.192 287.56 Z " fill="rgb(166,156,167)"/></g><g><path d=" M 851.924 395.646 L 868.948 406.646 C 870.327 407.538 871.329 408.908 871.759 410.493 L 877.074 430.052 C 877.863 432.953 876.609 436.023 874.015 437.543 L 850.012 451.603 L 823.176 414.892 L 843.858 396.288 C 846.093 394.278 849.398 394.015 851.924 395.646 L 851.924 395.646 Z " fill="rgb(252,166,47)"/><path d=" M 851.926 395.648 L 863.179 402.919 C 860.841 402.541 858.368 403.22 856.503 404.888 L 831.952 426.892 L 823.178 414.89 L 843.859 396.291 C 846.092 394.279 849.397 394.016 851.926 395.648 L 851.926 395.648 Z " fill="rgb(249,136,36)"/></g><path d=" M 779.737 493.263 L 762.19 469.259 L 819.272 427.532 L 836.819 451.536 L 779.737 493.263 Z " fill="rgb(145,130,145)"/><path d=" M 770.963 481.262 L 762.19 469.26 L 819.271 427.533 L 828.045 439.535 L 770.963 481.262 Z " fill="rgb(122,110,121)"/><g><path d=" M 822.675 373.464 C 824.494 375.952 825.092 379.267 823.986 382.392 L 818.281 398.498 C 817.983 399.341 818.119 400.277 818.648 400.999 L 861.875 460.134 C 862.403 460.856 863.254 461.271 864.147 461.242 L 881.225 460.694 C 886.671 460.519 891.207 464.89 891.189 470.386 C 891.171 475.621 886.845 479.833 881.613 480 L 858.243 480.75 C 855.054 480.853 852.021 479.373 850.139 476.798 L 799.207 407.124 C 797.325 404.549 796.836 401.21 797.901 398.204 L 805.699 376.188 C 807.475 371.175 813.109 368.291 818.12 370.072 C 820.016 370.747 821.57 371.953 822.675 373.464 L 822.675 373.464 Z " fill="rgb(253,221,69)"/></g><g><path d=" M 818.108 370.067 C 820.01 370.739 821.57 371.948 822.678 373.464 C 824.497 375.953 825.092 379.271 823.983 382.391 L 823.141 384.771 C 820.231 385.596 817.753 387.77 816.672 390.837 L 808.786 413.096 C 807.719 416.103 808.21 419.439 810.092 422.014 L 799.208 407.124 C 797.327 404.55 796.835 401.214 797.902 398.207 L 805.788 375.947 C 807.565 370.92 813.081 368.29 818.108 370.067 Z " fill="rgb(248,197,45)"/></g><path d=" M 782.838 496.528 C 780.517 511.46 766.51 521.699 751.578 519.378 C 736.646 517.058 726.407 503.051 728.727 488.119 C 731.048 473.186 745.055 462.947 759.987 465.268 C 774.919 467.588 785.158 481.595 782.838 496.528 Z " fill="rgb(253,221,69)"/><path d=" M 739.623 470.219 C 751.83 461.296 768.96 463.958 777.883 476.165 C 779.404 478.245 780.592 480.469 781.445 482.775 C 772.039 475.39 758.524 474.82 748.397 482.223 C 738.27 489.626 734.713 502.676 738.894 513.879 C 736.957 512.368 735.198 510.56 733.677 508.48 C 724.754 496.273 727.416 479.143 739.623 470.219 Z " fill="rgb(248,197,45)"/><path d=" M 766.624 494.008 C 765.694 499.991 760.081 504.094 754.098 503.164 C 748.115 502.234 744.012 496.622 744.942 490.638 C 745.871 484.655 751.484 480.552 757.467 481.482 C 763.451 482.412 767.553 488.024 766.624 494.008 Z " fill="rgb(33,193,248)"/><path d=" M 749.309 483.469 C 754.2 479.893 761.063 480.955 764.638 485.847 C 766.953 489.013 767.323 493.006 765.967 496.397 C 765.918 496.318 765.863 496.243 765.808 496.168 C 762.232 491.276 755.366 490.209 750.474 493.785 C 748.748 495.046 747.498 496.719 746.766 498.574 C 743.378 493.702 744.492 486.99 749.309 483.469 Z " fill="rgb(49,167,251)"/><g><path d=" M 821.502 462.593 L 814.95 467.383 L 797.403 443.379 L 803.955 438.59 L 821.502 462.593 Z " fill="rgb(122,110,121)"/></g><g><path d=" M 805.018 474.632 L 798.466 479.422 L 780.92 455.418 L 787.472 450.629 L 805.018 474.632 Z " fill="rgb(122,110,121)"/></g><g><path d=" M 812.731 450.589 L 806.18 455.378 L 797.405 443.375 L 803.956 438.586 L 812.731 450.589 Z " fill="rgb(104,94,103)"/></g><g><path d=" M 780.923 455.526 L 787.474 450.732 L 796.251 462.739 L 789.696 467.526 L 780.923 455.526 Z " fill="rgb(104,94,103)"/></g></g><g><path d=" M 850.911 413.902 C 851.937 414.062 852.903 414.613 853.564 415.518 L 858.637 422.458 C 859.961 424.269 859.565 426.808 857.756 428.131 C 855.945 429.454 853.406 429.06 852.083 427.25 L 847.01 420.309 C 845.686 418.499 846.082 415.96 847.891 414.636 C 848.796 413.974 849.884 413.742 850.911 413.902 Z " fill="rgb(249,136,36)"/></g></g><g><path d=" M 1413.513 51.761 L 1412.826 57.565 C 1412.765 58.075 1412.678 58.582 1412.564 59.072 C 1411 65.811 1404.58 70.438 1397.551 69.606 L 1376.61 67.127 C 1369.58 66.295 1364.418 60.296 1364.471 53.378 C 1364.475 52.875 1364.508 52.362 1364.569 51.852 L 1365.256 46.048 C 1366.968 47.068 1368.918 47.751 1371.026 48 L 1407.446 52.312 C 1409.554 52.562 1411.61 52.353 1413.513 51.761 Z " fill="rgb(80,117,141)"/><g><path d=" M 1409.991 -131.012 C 1408.105 -131.235 1406.758 -132.944 1406.981 -134.83 L 1409.706 -157.849 C 1409.929 -159.736 1411.639 -161.083 1413.525 -160.86 C 1415.411 -160.636 1416.758 -158.927 1416.535 -157.041 L 1413.81 -134.022 C 1413.587 -132.136 1411.877 -130.788 1409.991 -131.012 L 1409.991 -131.012 Z " fill="rgb(255,231,201)"/><path d=" M 1345.696 -112.88 C 1344.822 -112.984 1343.988 -113.42 1343.4 -114.166 L 1329.05 -132.37 C 1327.874 -133.862 1328.13 -136.024 1329.622 -137.199 C 1331.114 -138.375 1333.275 -138.118 1334.451 -136.628 L 1348.801 -118.423 C 1349.976 -116.931 1349.72 -114.77 1348.229 -113.594 C 1347.483 -113.006 1346.57 -112.777 1345.696 -112.88 Z " fill="rgb(255,231,201)"/><path d=" M 1313.054 -54.597 L 1290.034 -57.322 C 1288.148 -57.545 1286.801 -59.254 1287.024 -61.14 C 1287.247 -63.027 1288.957 -64.374 1290.843 -64.151 L 1313.862 -61.426 C 1315.748 -61.202 1317.095 -59.493 1316.872 -57.607 C 1316.649 -55.721 1314.94 -54.373 1313.054 -54.597 Z " fill="rgb(255,231,201)"/><path d=" M 1312.981 24.048 C 1312.107 23.945 1311.273 23.508 1310.685 22.763 C 1309.509 21.271 1309.765 19.109 1311.256 17.934 L 1329.46 3.584 C 1330.952 2.408 1333.114 2.664 1334.289 4.155 C 1335.465 5.647 1335.209 7.809 1333.718 8.984 L 1315.514 23.334 C 1314.768 23.922 1313.855 24.152 1312.981 24.048 L 1312.981 24.048 Z " fill="rgb(255,231,201)"/><path d=" M 1468.113 42.414 C 1467.24 42.31 1466.405 41.873 1465.817 41.128 L 1451.467 22.924 C 1450.291 21.432 1450.547 19.27 1452.039 18.095 C 1453.53 16.92 1455.692 17.176 1456.867 18.667 L 1471.218 36.871 C 1472.393 38.363 1472.137 40.524 1470.646 41.7 C 1469.901 42.287 1468.987 42.517 1468.113 42.414 L 1468.113 42.414 Z " fill="rgb(255,231,201)"/><path d=" M 1509.425 -31.349 L 1486.406 -34.074 C 1484.52 -34.298 1483.173 -36.007 1483.396 -37.893 C 1483.619 -39.779 1485.329 -41.127 1487.215 -40.903 L 1510.234 -38.178 C 1512.12 -37.955 1513.467 -36.246 1513.244 -34.36 C 1513.021 -32.473 1511.311 -31.126 1509.425 -31.349 Z " fill="rgb(255,231,201)"/><path d=" M 1468.275 -98.369 C 1467.401 -98.472 1466.566 -98.909 1465.978 -99.654 C 1464.803 -101.146 1465.059 -103.308 1466.55 -104.483 L 1484.754 -118.834 C 1486.246 -120.009 1488.407 -119.753 1489.583 -118.262 C 1490.759 -116.77 1490.503 -114.609 1489.011 -113.433 L 1470.807 -99.083 C 1470.062 -98.495 1469.148 -98.265 1468.275 -98.369 L 1468.275 -98.369 Z " fill="rgb(255,231,201)"/></g><path d=" M 1389.775 45.604 C 1389.775 45.604 1366.968 47.068 1365.256 46.048 L 1364.569 51.852 C 1364.508 52.362 1364.475 52.875 1364.471 53.378 C 1364.418 60.296 1369.58 66.295 1376.61 67.127 L 1382.528 67.828 C 1376.589 67.125 1371.984 62.733 1370.73 57.216 C 1370.518 56.283 1371.281 55.417 1372.231 55.529 L 1406.584 59.596 C 1408.66 59.842 1410.687 59.643 1412.564 59.072 C 1412.678 58.582 1412.765 58.075 1412.826 57.565 L 1413.513 51.761 C 1411.61 52.353 1389.775 45.604 1389.775 45.604 L 1389.775 45.604 Z " fill="rgb(43,89,127)"/><path d=" M 1423.739 39.469 C 1423.036 45.405 1418.876 50.097 1413.513 51.761 C 1411.61 52.353 1409.554 52.562 1407.446 52.312 L 1371.026 48 C 1368.918 47.751 1366.968 47.068 1365.256 46.048 C 1360.43 43.178 1357.48 37.644 1358.182 31.708 C 1358.182 31.708 1360.488 10.404 1360.512 9.843 L 1360.514 9.825 L 1394.087 9.183 L 1426.203 17.602 L 1423.739 39.469 Z " fill="rgb(80,117,141)"/><path d=" M 1378.765 48.917 L 1371.026 48 C 1368.918 47.751 1366.968 47.068 1365.256 46.048 C 1360.43 43.178 1357.48 37.644 1358.182 31.708 C 1358.182 31.708 1360.488 10.404 1360.512 9.843 L 1360.514 9.825 L 1368.254 10.741 L 1368.252 10.76 C 1368.227 11.32 1365.922 32.624 1365.922 32.624 C 1365.219 38.56 1368.169 44.094 1372.995 46.964 C 1374.707 47.984 1376.657 48.667 1378.765 48.917 Z " fill="rgb(43,89,127)"/><path d=" M 1423.766 39.241 L 1412.157 37.867 C 1410.272 37.643 1408.924 35.933 1409.147 34.048 C 1409.37 32.163 1411.081 30.815 1412.966 31.038 L 1424.538 32.408 L 1424.152 35.824 L 1423.766 39.241 Z " fill="rgb(43,89,127)"/><path d=" M 1400.042 32.97 C 1399.819 34.855 1398.108 36.203 1396.223 35.98 L 1358.205 31.479 L 1358.936 24.641 L 1397.032 29.151 C 1398.916 29.375 1400.265 31.085 1400.042 32.97 L 1400.042 32.97 Z " fill="rgb(43,89,127)"/><path d=" M 1408.706 -119.651 C 1408.706 -119.651 1408.705 -119.651 1408.705 -119.651 L 1408.706 -119.652 C 1373.611 -124.355 1340.415 -97.211 1336.915 -62.233 C 1334.807 -44.427 1339.949 -27.454 1349.986 -14.36 C 1355.899 -6.638 1360.969 0.452 1360.514 9.825 L 1426.19 17.711 C 1427.692 8.185 1433.898 2.365 1441.514 -3.912 C 1454.109 -14.29 1462.902 -29.452 1464.988 -47.071 C 1469.235 -82.954 1444.044 -115.435 1408.706 -119.651 L 1408.706 -119.651 Z " fill="rgb(250,210,7)"/><path d=" M 1426.192 17.697 L 1426.19 17.711 L 1360.514 9.825 C 1360.968 0.452 1355.899 -6.638 1349.985 -14.36 C 1339.948 -27.454 1334.807 -44.428 1336.915 -62.233 C 1340.414 -97.212 1373.611 -124.355 1408.706 -119.651 C 1409.839 -119.516 1410.965 -119.351 1412.078 -119.159 C 1378.639 -121.165 1348.009 -94.84 1344.654 -61.316 C 1342.546 -43.511 1347.687 -26.538 1357.724 -13.444 C 1363.638 -5.722 1368.707 1.368 1368.253 10.741 L 1426.192 17.697 Z " fill="rgb(250,165,21)"/><path d=" M 1398.707 -21.924 C 1397.137 -20.33 1394.941 -19.513 1392.711 -19.693 C 1392.617 -19.701 1392.523 -19.71 1392.43 -19.721 C 1390.31 -19.972 1388.391 -21.108 1387.15 -22.856 L 1368.556 -49.062 C 1366.139 -52.469 1366.941 -57.191 1370.348 -59.608 C 1373.755 -62.026 1378.476 -61.224 1380.894 -57.816 L 1394.267 -38.97 L 1422.56 -67.682 C 1425.492 -70.657 1430.282 -70.693 1433.257 -67.76 C 1436.233 -64.828 1436.268 -60.039 1433.335 -57.063 L 1398.707 -21.924 Z " fill="rgb(250,165,21)"/></g><g><path d=" M 1235.537 242.581 C 1231.779 246.339 1225.68 246.339 1221.923 242.581 L 1212.332 232.99 C 1208.574 229.233 1208.574 223.134 1212.332 219.377 C 1216.089 215.619 1222.188 215.619 1225.946 219.377 L 1235.537 228.968 C 1239.294 232.725 1239.294 238.824 1235.537 242.581 Z " fill="rgb(144,164,174)"/><path d=" M 1262.764 215.354 C 1259.007 219.111 1252.908 219.111 1249.15 215.354 L 1239.559 205.763 C 1235.802 202.005 1235.802 195.906 1239.559 192.149 C 1243.317 188.391 1249.416 188.391 1253.173 192.149 L 1262.764 201.74 C 1266.522 205.497 1266.522 211.596 1262.764 215.354 Z " fill="rgb(144,164,174)"/><path d=" M 1300.863 226.946 L 1246.816 280.993 C 1244.923 282.885 1242.139 283.573 1239.587 282.79 C 1234.863 281.333 1230.465 278.665 1226.871 275.071 C 1220.942 269.142 1217.675 261.287 1217.682 252.948 C 1217.689 244.61 1220.942 236.755 1226.871 230.826 L 1250.696 207.002 C 1262.894 194.804 1282.743 194.804 1294.941 207.002 C 1298.535 210.596 1301.203 214.993 1302.653 219.71 C 1303.442 222.27 1302.755 225.054 1300.863 226.946 Z " fill="rgb(96,125,139)"/><g><path d=" M 1405.553 235.931 L 1381.729 259.755 C 1377.971 263.513 1371.872 263.513 1368.115 259.755 C 1364.358 255.998 1364.358 249.899 1368.115 246.141 L 1391.939 222.317 C 1395.697 218.56 1401.796 218.56 1405.553 222.317 C 1409.311 226.075 1409.311 232.174 1405.553 235.931 Z " fill="rgb(144,164,174)"/><path d=" M 1279.625 361.859 L 1255.801 385.683 C 1252.043 389.441 1245.944 389.441 1242.187 385.683 C 1238.429 381.926 1238.429 375.827 1242.187 372.07 L 1266.011 348.245 C 1269.769 344.488 1275.868 344.488 1279.625 348.245 C 1283.382 352.003 1283.382 358.102 1279.625 361.859 Z " fill="rgb(144,164,174)"/><path d=" M 1313.666 429.922 C 1311.549 432.039 1308.486 433.141 1305.314 432.624 C 1300.066 431.773 1296.499 426.831 1297.35 421.583 L 1303 386.664 C 1303.858 381.422 1308.799 377.842 1314.041 378.7 C 1319.289 379.55 1322.856 384.492 1322.005 389.74 L 1316.355 424.66 C 1316.015 426.729 1315.048 428.54 1313.666 429.922 Z " fill="rgb(144,164,174)"/><path d=" M 1342.051 226.599 C 1339.934 228.716 1336.871 229.818 1333.699 229.301 C 1328.451 228.45 1324.884 223.508 1325.735 218.26 L 1331.385 183.341 C 1332.249 178.093 1337.184 174.519 1342.426 175.377 C 1347.674 176.227 1351.241 181.169 1350.39 186.417 L 1344.74 221.337 C 1344.4 223.406 1343.433 225.217 1342.051 226.599 Z " fill="rgb(144,164,174)"/><path d=" M 1449.791 293.797 C 1448.41 295.179 1446.599 296.145 1444.53 296.485 L 1409.61 302.135 C 1404.362 302.986 1399.42 299.419 1398.569 294.171 C 1397.725 288.916 1401.299 283.981 1406.533 283.13 L 1441.453 277.481 C 1446.701 276.63 1451.643 280.196 1452.494 285.445 C 1453.011 288.617 1451.908 291.68 1449.791 293.797 Z " fill="rgb(144,164,174)"/><path d=" M 1246.468 322.182 C 1245.087 323.563 1243.276 324.53 1241.207 324.87 L 1206.287 330.52 C 1201.039 331.371 1196.097 327.804 1195.246 322.556 C 1194.395 317.308 1197.976 312.366 1203.21 311.515 L 1238.13 305.865 C 1243.378 305.015 1248.32 308.581 1249.171 313.83 C 1249.688 317.002 1248.585 320.065 1246.468 322.182 Z " fill="rgb(144,164,174)"/></g><path d=" M 1397.044 360.157 L 1380.027 377.175 C 1354.692 402.51 1313.469 402.51 1288.134 377.175 L 1250.696 339.737 C 1225.36 314.401 1225.36 273.179 1250.696 247.843 L 1267.713 230.826 C 1293.048 205.49 1334.271 205.49 1359.606 230.826 L 1397.044 268.264 C 1422.38 293.599 1422.38 334.822 1397.044 360.157 Z " fill="rgb(244,67,54)"/><path d=" M 1354.501 334.631 C 1350.744 338.389 1344.645 338.389 1340.887 334.631 L 1293.239 286.983 C 1289.481 283.226 1289.481 277.127 1293.239 273.369 C 1296.996 269.612 1303.095 269.612 1306.853 273.369 L 1354.501 321.018 C 1358.259 324.775 1358.259 330.874 1354.501 334.631 Z " fill="rgb(255,255,255)"/><path d=" M 1212.332 219.377 C 1208.574 223.134 1208.574 229.233 1212.332 232.99 L 1220.132 240.791 C 1221.684 237.115 1223.958 233.739 1226.871 230.826 L 1232.133 225.564 L 1225.946 219.377 C 1222.188 215.619 1216.089 215.619 1212.332 219.377 Z " fill="rgb(125,143,151)"/><path d=" M 1238.783 218.914 L 1232.133 225.564 L 1226.871 230.826 C 1223.958 233.739 1221.684 237.115 1220.132 240.791 C 1218.519 244.596 1217.675 248.708 1217.682 252.948 C 1217.675 261.287 1220.942 269.142 1226.871 275.071 C 1228.77 276.97 1230.894 278.617 1233.168 279.951 C 1235.713 268.175 1241.561 256.978 1250.696 247.843 L 1259.204 239.335 L 1238.783 218.914 Z " fill="rgb(84,109,121)"/><path d=" M 1262.608 351.649 L 1242.187 372.07 C 1238.429 375.827 1238.429 381.926 1242.187 385.683 C 1245.944 389.441 1252.043 389.441 1255.801 385.683 L 1276.222 365.263 L 1262.608 351.649 Z " fill="rgb(125,143,151)"/><path d=" M 1302.762 388.168 L 1297.35 421.583 C 1296.499 426.831 1300.066 431.773 1305.314 432.624 C 1308.486 433.141 1311.549 432.039 1313.666 429.922 C 1315.048 428.54 1316.015 426.729 1316.355 424.66 L 1321.168 394.893 C 1314.796 393.614 1308.582 391.374 1302.762 388.168 Z " fill="rgb(125,143,151)"/><path d=" M 1197.949 314.204 C 1195.839 316.314 1194.736 319.377 1195.246 322.556 C 1196.097 327.804 1201.039 331.371 1206.287 330.52 L 1239.702 325.109 C 1236.503 319.282 1234.264 313.067 1232.977 306.689 L 1203.21 311.502 C 1201.141 311.856 1199.33 312.822 1197.949 314.204 Z " fill="rgb(125,143,151)"/><path d=" M 1259.204 239.335 L 1250.696 247.843 C 1241.561 256.978 1235.713 268.175 1233.168 279.951 C 1231.269 288.753 1231.2 297.874 1232.97 306.696 C 1234.257 313.074 1236.496 319.289 1239.702 325.109 C 1242.588 330.364 1246.251 335.292 1250.696 339.737 L 1262.608 351.649 L 1276.222 365.263 L 1288.134 377.175 C 1292.579 381.62 1297.507 385.282 1302.762 388.168 C 1308.588 391.367 1314.803 393.607 1321.181 394.893 C 1341.799 399.039 1364.065 393.137 1380.027 377.175 L 1388.536 368.666 L 1354.501 334.631 C 1350.744 338.389 1344.645 338.389 1340.887 334.631 L 1293.239 286.983 C 1289.481 283.226 1289.481 277.127 1293.239 273.369 L 1259.204 239.335 Z " fill="rgb(212,58,47)"/><path d=" M 1293.239 273.369 C 1289.481 277.127 1289.481 283.226 1293.239 286.983 L 1340.887 334.631 C 1344.645 338.389 1350.744 338.389 1354.501 334.631 L 1293.239 273.369 Z " fill="rgb(222,222,222)"/></g><g><path d=" M 601.029 19.365 C 620.928 29.133 671.987 61.746 679.083 141.676 C 679.083 141.676 688.609 132.772 695.715 118.577 C 697.356 115.301 702.099 115.393 703.62 118.726 C 707.001 126.139 711.756 138.154 715.516 153.84 C 726.881 201.233 698.212 250.249 650.604 260.674 C 604.44 270.783 558.549 241.21 548.483 194.851 C 539.761 154.68 554.654 129.49 554.639 93.307 C 554.637 90.327 557.611 88.253 560.438 89.2 C 566.854 91.344 577.211 95.72 585.041 103.434 C 585.041 103.434 602.368 67.967 594.808 24.123 C 594.197 20.58 597.801 17.78 601.029 19.365 Z " fill="rgb(255,170,95)"/><path d=" M 677.801 166.352 C 673.28 177.874 665.276 182.007 665.276 182.007 C 659.751 139.965 637.377 113.091 628.586 103.97 C 627.341 102.678 625.141 103.568 625.142 105.363 C 625.185 134.243 612.544 153.031 612.544 153.031 C 606.032 148.1 600.554 146.691 597.776 146.289 C 596.684 146.133 595.725 146.923 595.569 148.015 C 592.829 167.029 583.381 183.301 584.951 204.135 C 587.26 234.79 615.003 258.297 645.425 253.872 C 676.111 249.408 696.096 220.039 689.629 190.258 C 687.028 178.278 683.65 170.395 681.446 166.121 C 680.651 164.577 678.434 164.738 677.801 166.352 Z " fill="rgb(255,225,125)"/><path d=" M 632.677 171.348 C 631.715 169.917 629.631 169.919 628.767 171.41 C 623.605 180.325 610.12 206.064 614.285 225.247 C 617.582 240.431 632.565 250.069 647.752 246.771 C 662.936 243.475 672.574 228.491 669.277 213.307 C 666.142 198.869 645.82 190.886 632.677 171.348 Z " fill="rgb(255,255,255)"/><path d=" M 649.879 260.791 C 640.771 262.065 560.581 264.427 566.102 161.694 C 568.164 123.362 562.741 90.012 562.741 90.012 C 561.935 89.717 561.155 89.439 560.438 89.2 C 557.611 88.253 554.637 90.327 554.639 93.307 C 554.654 129.488 539.761 154.68 548.483 194.851 C 558.496 240.967 603.773 270.308 649.879 260.791 Z " fill="rgb(255,140,90)"/></g></g></svg>